<svg width="24" height="24" viewBox="0 0 24 24" fill="none" xmlns="http://www.w3.org/2000/svg">
<path fill-rule="evenodd" clip-rule="evenodd" d="M6.5 7C6.77615 7 7 7.22386 7 7.5V10H9.5C9.77615 10 10 10.2239 10 10.5C10 10.7761 9.77615 11 9.5 11H6.5C6.22386 11 6 10.7761 6 10.5V7.5C6 7.22386 6.22386 7 6.5 7Z" fill="#ED3A90"/>
<path fill-rule="evenodd" clip-rule="evenodd" d="M11.808 6.11953C12.9638 5.88537 14.163 5.99701 15.2557 6.44048C16.3484 6.88395 17.2862 7.6396 17.9519 8.61301C18.6176 9.58641 18.9817 10.7344 18.9987 11.9136C19.0157 13.0927 18.6849 14.2507 18.0475 15.2429C17.4101 16.2351 16.4945 17.0175 15.415 17.4923C14.3356 17.9671 13.1401 18.1132 11.9781 17.9125C10.816 17.7118 9.73884 17.173 8.8812 16.3636C8.68037 16.1741 8.67121 15.8576 8.86075 15.6568C9.05028 15.456 9.36673 15.4468 9.56756 15.6364C10.2823 16.3109 11.1799 16.7598 12.1483 16.9271C13.1167 17.0944 14.1129 16.9726 15.0124 16.5769C15.912 16.1813 16.675 15.5293 17.2062 14.7025C17.7373 13.8756 18.013 12.9106 17.9988 11.928C17.9847 10.9454 17.6813 9.98869 17.1265 9.17752C16.5717 8.36635 15.7902 7.73664 14.8796 7.36708C13.969 6.99752 12.9697 6.90449 12.0066 7.09962C11.0434 7.29475 10.1591 7.76938 9.46415 8.46421C9.45895 8.46941 9.45363 8.4745 9.44821 8.47946L6.83758 10.8688C6.63388 11.0553 6.31761 11.0413 6.13117 10.8376C5.94473 10.6339 5.95872 10.3176 6.16242 10.1312L8.76509 7.74907C9.59782 6.91961 10.6559 6.35294 11.808 6.11953Z" fill="#ED3A90"/>
</svg>
