<svg width="24" height="24" viewBox="0 0 24 24" fill="none" xmlns="http://www.w3.org/2000/svg">
<path d="M8.69999 17.3C8.51665 17.1167 8.42499 16.8833 8.42499 16.6C8.42499 16.3167 8.51665 16.0833 8.69999 15.9L12.6 12L8.69999 8.09999C8.51665 7.91665 8.42499 7.68332 8.42499 7.39999C8.42499 7.11665 8.51665 6.88332 8.69999 6.69999C8.88332 6.51665 9.11665 6.42499 9.39999 6.42499C9.68332 6.42499 9.91665 6.51665 10.1 6.69999L14.7 11.3C14.8 11.4 14.871 11.5083 14.913 11.625C14.955 11.7417 14.9757 11.8667 14.975 12C14.975 12.1333 14.954 12.2583 14.912 12.375C14.87 12.4917 14.7993 12.6 14.7 12.7L10.1 17.3C9.91665 17.4833 9.68332 17.575 9.39999 17.575C9.11665 17.575 8.88332 17.4833 8.69999 17.3Z" fill="#666666"/>
</svg>
