<svg width="20" height="20" viewBox="0 0 20 20" fill="none" xmlns="http://www.w3.org/2000/svg">
<path d="M8.49999 14.4586L17.9164 5.04141L17.9164 5.0414C18.0712 4.88662 18.2811 4.79966 18.5 4.79966C18.7189 4.79966 18.9288 4.88662 19.0836 5.0414C19.2384 5.19619 19.3253 5.40612 19.3253 5.62501C19.3253 5.84391 19.2384 6.05384 19.0836 6.20862L9.08367 16.2085L9.08359 16.2086L8.49999 14.4586ZM8.49999 14.4586L4.7086 10.6664L4.70859 10.6664C4.55381 10.5116 4.34388 10.4247 4.12498 10.4247C3.90609 10.4247 3.69615 10.5116 3.54137 10.6664C3.38659 10.8212 3.29963 11.0311 3.29963 11.25C3.29963 11.4689 3.38659 11.6788 3.54137 11.8336L7.91629 16.2085L7.91637 16.2086L8.49999 14.4586Z" fill="#04D361" stroke="#1B873F" stroke-width="0.4"/>
</svg>
