<svg width="20" height="21" viewBox="0 0 20 21" fill="none" xmlns="http://www.w3.org/2000/svg">
<g clip-path="url(#clip0_15_138)">
<path d="M14.95 15.45C13.5255 16.5358 11.7909 17.1374 10 17.1667C4.16666 17.1667 0.833328 10.5 0.833328 10.5C1.8699 8.56825 3.30761 6.88051 5.05 5.55M8.24999 4.03333C8.82361 3.89907 9.41088 3.83195 10 3.83333C15.8333 3.83333 19.1667 10.5 19.1667 10.5C18.6608 11.4463 18.0575 12.3373 17.3667 13.1583M11.7667 12.2667C11.5378 12.5123 11.2618 12.7093 10.9551 12.8459C10.6485 12.9826 10.3174 13.056 9.98174 13.062C9.64606 13.0679 9.31263 13.0061 9.00134 12.8804C8.69004 12.7547 8.40726 12.5675 8.16987 12.3301C7.93247 12.0927 7.74532 11.81 7.61959 11.4987C7.49385 11.1874 7.4321 10.8539 7.43802 10.5183C7.44395 10.1826 7.51742 9.85154 7.65406 9.54487C7.7907 9.23821 7.98771 8.96221 8.23333 8.73333" stroke="#F2D4D4" stroke-width="1.5" stroke-linecap="round" stroke-linejoin="round"/>
<path d="M0.833328 1.33333L19.1667 19.6667" stroke="#F2D4D4" stroke-width="1.5" stroke-linecap="round" stroke-linejoin="round"/>
</g>
<defs>
<clipPath id="clip0_15_138">
<rect width="20" height="20" fill="white" transform="translate(0 0.5)"/>
</clipPath>
</defs>
</svg>
