<svg width="36" height="40" viewBox="0 0 36 40" fill="none" xmlns="http://www.w3.org/2000/svg">
<path fill-rule="evenodd" clip-rule="evenodd" d="M21.5694 5.94468C19.4409 5.06301 17.1381 4.68283 14.8392 4.83349C12.5402 4.98419 10.3068 5.6617 8.31157 6.81361L6.29847 7.97586L3.97397 3.94972L5.98706 2.78747C8.59984 1.27901 11.5246 0.391761 14.5351 0.194464C17.5456 -0.00286856 20.5611 0.495004 23.3485 1.64953C26.1357 2.80409 28.6201 4.58434 30.6094 6.85263C32.5984 9.12088 34.0393 11.8164 34.8203 14.7305C35.601 17.6447 35.7011 20.6994 35.1125 23.6584C34.5238 26.6174 33.2625 29.4014 31.4258 31.7949C29.5891 34.1884 27.2267 36.1274 24.5208 37.4617C21.815 38.796 18.3249 39.4901 15.8215 39.4901C13.3181 39.4901 11.8563 39.1146 9.93668 38.3196C8.071 37.5468 6.37583 36.4142 4.94787 34.9863C3.51994 33.5583 2.38727 31.8629 1.61446 29.9972C0.841685 28.1316 0.443909 26.132 0.443909 24.1126C0.443909 22.0932 0.841685 20.0936 1.61446 18.2279C2.38727 16.3622 3.51994 14.667 4.94787 13.2391C6.37583 11.8112 8.071 10.6784 9.93668 9.90567C11.8024 9.13286 13.802 8.73512 15.8214 8.73512C17.8408 8.73512 19.8404 9.13286 21.7061 9.90567C23.5718 10.6784 25.267 11.8112 26.6949 13.2391C28.1228 14.667 29.2554 16.3622 30.0283 18.2279C30.3608 19.0304 30.6237 19.8577 30.8157 20.7007C30.9094 19.1004 30.7467 17.4908 30.3297 15.9338C29.7332 13.7084 28.6331 11.65 27.114 9.91793C25.595 8.18578 23.6978 6.82631 21.5694 5.94468ZM6.53675 29.4879C6.80042 24.4901 10.9365 20.5186 16.0002 20.5186C20.8681 20.5186 24.8788 24.189 25.4159 28.9132C25.5297 28.6857 25.6356 28.4539 25.7332 28.2182C26.2724 26.9166 26.5499 25.5215 26.5499 24.1126C26.5499 22.7037 26.2724 21.3086 25.7332 20.007C25.1941 18.7053 24.4038 17.5227 23.4076 16.5264C22.4114 15.5302 21.2287 14.74 19.927 14.2008C18.6254 13.6616 17.2303 13.3841 15.8214 13.3841C14.4125 13.3841 13.0174 13.6616 11.7158 14.2008C10.4142 14.74 9.23146 15.5302 8.23521 16.5264C7.239 17.5227 6.44874 18.7053 5.90957 20.007C5.37043 21.3086 5.09292 22.7037 5.09292 24.1126C5.09292 25.5215 5.37043 26.9166 5.90957 28.2182C6.09084 28.6558 6.30044 29.0799 6.53675 29.4879ZM20.828 29.9954C20.828 32.6618 18.6665 34.8232 16.0002 34.8232C13.3339 34.8232 11.1724 32.6618 11.1724 29.9954C11.1724 27.3291 13.3339 25.1676 16.0002 25.1676C18.6665 25.1676 20.828 27.3291 20.828 29.9954Z" fill="#CE043D"/>
</svg>
