<svg width="86" height="45" viewBox="0 0 86 45" fill="none" xmlns="http://www.w3.org/2000/svg">
<path fill-rule="evenodd" clip-rule="evenodd" d="M38.7019 1.93096C40.174 2.75929 41.3597 3.90317 42.2184 5.36261L42.2389 5.40205C43.118 6.86149 43.5473 8.53786 43.5473 10.372C43.5473 12.2062 43.118 13.8628 42.2593 15.3223C41.4006 16.7817 40.2148 17.9059 38.7428 18.7342C37.2504 19.5428 35.5943 19.957 33.8156 19.957C32.0369 19.957 30.4014 19.5428 28.9293 18.7342C27.4573 17.9256 26.2715 16.7817 25.4128 15.3223C24.5337 13.8628 24.1044 12.1865 24.1044 10.3326C24.1044 8.4787 24.5542 6.80232 25.4128 5.34288C26.2715 3.88345 27.4573 2.73957 28.9293 1.93096C30.4014 1.12236 32.0369 0.708191 33.8156 0.708191C35.5943 0.708191 37.2299 1.10263 38.7019 1.93096ZM5.41786 1.08289H0V19.5428H4.39562V8.87311H4.4774L4.74955 9.49069C5.31249 10.7681 5.75094 11.7629 6.05165 12.4625C6.36037 13.1808 6.8304 14.2258 7.4474 15.5976L7.44755 15.5979L7.44764 15.5981L7.44774 15.5983L7.68723 16.1308C7.94084 16.7272 8.14529 17.1931 8.30059 17.547L8.30069 17.5472C8.34566 17.6497 8.38651 17.7428 8.42324 17.827L8.5262 18.0636C8.68438 18.4277 8.89861 18.9207 9.1797 19.5428H12.226L12.962 17.8861C13.2073 17.3339 13.4527 16.7817 13.6775 16.2295C14.2296 15.0067 14.7816 13.7839 15.3131 12.5611C15.5788 11.95 15.8495 11.334 16.1203 10.718L16.1205 10.7175L16.1207 10.7172C16.3916 10.1009 16.6625 9.48452 16.9283 8.87311H17.01V19.5428H21.4261V1.08289H16.0082C14.8429 3.66648 13.9638 5.61897 13.3913 6.92063C13.0679 7.65607 12.64 8.61188 12.1151 9.78448C11.711 10.6873 11.2493 11.7185 10.7335 12.8767H10.6926C9.52726 10.2931 8.64813 8.34062 8.07568 7.03896C7.75224 6.30351 7.32438 5.34771 6.79946 4.17511L6.79945 4.17509C6.39532 3.27232 5.93367 2.24104 5.41786 1.08289ZM43.5677 1.08289H48.1269C48.1844 1.23539 48.2369 1.37084 48.2834 1.49095L48.2834 1.49109L48.2837 1.49176L48.2839 1.49239L48.284 1.4925L48.284 1.4926C48.3695 1.71339 48.4348 1.88224 48.4745 2.00982C48.5146 2.10645 48.5595 2.22676 48.6142 2.37305C48.6712 2.52534 48.7386 2.7058 48.8221 2.91704C49.1113 3.66652 49.4173 4.45791 49.74 5.2925L49.7425 5.29893C50.2173 6.52692 50.7283 7.84842 51.2754 9.26756C52.1954 11.6539 52.8292 13.35 53.1972 14.3756H53.2381C53.3884 13.9833 53.5463 13.5652 53.7152 13.1181L53.7156 13.1172L53.7161 13.1157L53.7166 13.1144L53.717 13.1134L53.7173 13.1125L53.7179 13.111C53.9389 12.5261 54.1785 11.8916 54.4444 11.2003C54.8549 10.0844 55.2994 8.93554 55.7625 7.73887L55.8959 7.39396C56.4275 5.99369 56.8977 4.73147 57.3066 3.62704C57.6282 2.75848 57.8992 2.0485 58.1096 1.49707L58.1102 1.49553L58.1166 1.47897L58.1178 1.47577C58.1718 1.3342 58.2218 1.20324 58.2675 1.08289H62.8267L55.7937 19.5428H50.6212L43.5677 1.08289ZM68.9398 1.08289H64.6055V19.5428H68.9398V1.08289ZM72.5789 1.08289H85.2546V4.96814H76.9131V8.16312H84.7639V12.2653H76.9131V15.6772H85.4999V19.5625H72.5789V1.08289ZM85.5 26.2483H81.1657V44.7082H85.5V26.2483ZM72.5789 26.2483H67.4473L60.3529 44.7082H64.8712C64.9644 44.4596 65.0517 44.2281 65.1328 44.0132L65.133 44.0125C65.3541 43.4263 65.5285 42.9639 65.6481 42.6177C65.788 42.2728 65.9751 41.7798 66.2185 41.1387C66.2953 40.9364 66.3777 40.7194 66.4659 40.4877H73.4171L73.4172 40.4877L73.4172 40.4879C73.7443 41.3556 73.9896 42.0063 74.1736 42.4599C74.2553 42.6767 74.3626 42.9526 74.4928 43.2875L74.4929 43.2879C74.6233 43.6233 74.7767 44.0178 74.9505 44.4715C74.9709 44.511 74.9863 44.5504 75.0016 44.5899L75.0017 44.59C75.017 44.6294 75.0323 44.6688 75.0527 44.7082H79.6937L72.5993 26.2483H72.5789ZM9.11836 27.1161H51.2346C56.2705 27.1161 60.3529 31.0542 60.3529 35.9121C60.3529 40.7701 56.2705 44.7082 51.2346 44.7082H9.11836C4.08243 44.7082 0 40.7701 0 35.9121C0 31.0542 4.08243 27.1161 9.11836 27.1161Z" fill="url(#paint0_linear_642_952)"/>
<defs>
<linearGradient id="paint0_linear_642_952" x1="85.4806" y1="47.7082" x2="-20.5853" y2="-28.8416" gradientUnits="userSpaceOnUse">
<stop stop-color="#9747FF"/>
<stop offset="1" stop-color="#C497FF"/>
</linearGradient>
</defs>
</svg>
