<svg width="24" height="24" viewBox="0 0 24 24" fill="none" xmlns="http://www.w3.org/2000/svg">
<path d="M18.3 5.71001C18.2075 5.61731 18.0976 5.54376 17.9766 5.49358C17.8556 5.4434 17.7259 5.41757 17.595 5.41757C17.464 5.41757 17.3343 5.4434 17.2134 5.49358C17.0924 5.54376 16.9825 5.61731 16.89 5.71001L12 10.59L7.10998 5.70001C7.0174 5.60743 6.90749 5.53399 6.78652 5.48388C6.66556 5.43378 6.53591 5.40799 6.40498 5.40799C6.27405 5.40799 6.1444 5.43378 6.02344 5.48388C5.90247 5.53399 5.79256 5.60743 5.69998 5.70001C5.6074 5.79259 5.53396 5.9025 5.48385 6.02347C5.43375 6.14443 5.40796 6.27408 5.40796 6.40501C5.40796 6.53594 5.43375 6.66559 5.48385 6.78655C5.53396 6.90752 5.6074 7.01743 5.69998 7.11001L10.59 12L5.69998 16.89C5.6074 16.9826 5.53396 17.0925 5.48385 17.2135C5.43375 17.3344 5.40796 17.4641 5.40796 17.595C5.40796 17.7259 5.43375 17.8556 5.48385 17.9766C5.53396 18.0975 5.6074 18.2074 5.69998 18.3C5.79256 18.3926 5.90247 18.466 6.02344 18.5161C6.1444 18.5662 6.27405 18.592 6.40498 18.592C6.53591 18.592 6.66556 18.5662 6.78652 18.5161C6.90749 18.466 7.0174 18.3926 7.10998 18.3L12 13.41L16.89 18.3C16.9826 18.3926 17.0925 18.466 17.2134 18.5161C17.3344 18.5662 17.464 18.592 17.595 18.592C17.7259 18.592 17.8556 18.5662 17.9765 18.5161C18.0975 18.466 18.2074 18.3926 18.3 18.3C18.3926 18.2074 18.466 18.0975 18.5161 17.9766C18.5662 17.8556 18.592 17.7259 18.592 17.595C18.592 17.4641 18.5662 17.3344 18.5161 17.2135C18.466 17.0925 18.3926 16.9826 18.3 16.89L13.41 12L18.3 7.11001C18.68 6.73001 18.68 6.09001 18.3 5.71001Z" fill="#A1A1AA"/>
</svg>
