<svg width="20" height="21" viewBox="0 0 20 21" fill="none" xmlns="http://www.w3.org/2000/svg">
<path d="M16.7188 9.39236H11.25C10.7527 9.39236 10.2758 9.19482 9.92417 8.84319C9.57254 8.49156 9.375 8.01465 9.375 7.51736V2.04861C9.375 2.00717 9.35854 1.96743 9.32924 1.93813C9.29993 1.90883 9.26019 1.89236 9.21875 1.89236H5.625C4.96196 1.89236 4.32607 2.15576 3.85723 2.6246C3.38839 3.09344 3.125 3.72932 3.125 4.39236V16.8924C3.125 17.5554 3.38839 18.1913 3.85723 18.6601C4.32607 19.129 4.96196 19.3924 5.625 19.3924H14.375C15.038 19.3924 15.6739 19.129 16.1428 18.6601C16.6116 18.1913 16.875 17.5554 16.875 16.8924V9.54861C16.875 9.50717 16.8585 9.46743 16.8292 9.43813C16.7999 9.40883 16.7602 9.39236 16.7188 9.39236ZM13.125 15.6424H6.875C6.70924 15.6424 6.55027 15.5765 6.43306 15.4593C6.31585 15.3421 6.25 15.1831 6.25 15.0174C6.25 14.8516 6.31585 14.6926 6.43306 14.5754C6.55027 14.4582 6.70924 14.3924 6.875 14.3924H13.125C13.2908 14.3924 13.4497 14.4582 13.5669 14.5754C13.6842 14.6926 13.75 14.8516 13.75 15.0174C13.75 15.1831 13.6842 15.3421 13.5669 15.4593C13.4497 15.5765 13.2908 15.6424 13.125 15.6424ZM13.125 12.5174H6.875C6.70924 12.5174 6.55027 12.4515 6.43306 12.3343C6.31585 12.2171 6.25 12.0581 6.25 11.8924C6.25 11.7266 6.31585 11.5676 6.43306 11.4504C6.55027 11.3332 6.70924 11.2674 6.875 11.2674H13.125C13.2908 11.2674 13.4497 11.3332 13.5669 11.4504C13.6842 11.5676 13.75 11.7266 13.75 11.8924C13.75 12.0581 13.6842 12.2171 13.5669 12.3343C13.4497 12.4515 13.2908 12.5174 13.125 12.5174Z"  fill="#fbbfd8"/>
<path d="M16.3758 8.00916L10.7582 2.39158C10.7473 2.38072 10.7334 2.37334 10.7183 2.37035C10.7032 2.36736 10.6875 2.36891 10.6733 2.37479C10.659 2.38068 10.6469 2.39064 10.6383 2.40343C10.6297 2.41622 10.6251 2.43126 10.625 2.44666V7.51736C10.625 7.68313 10.6908 7.8421 10.8081 7.95931C10.9253 8.07652 11.0842 8.14236 11.25 8.14236H16.3207C16.3361 8.1423 16.3511 8.13768 16.3639 8.12909C16.3767 8.12051 16.3867 8.10833 16.3926 8.09409C16.3985 8.07986 16.4 8.0642 16.397 8.04909C16.394 8.03398 16.3866 8.02009 16.3758 8.00916Z"  fill="#fbbfd8"/>
</svg>
