<svg width="20" height="21" viewBox="0 0 20 21" fill="none" xmlns="http://www.w3.org/2000/svg">
<path d="M13.1243 10.6424C12.3212 10.6424 11.5447 10.2838 10.9368 9.63299C10.3458 8.99822 9.98489 8.15174 9.92122 7.25018C9.85325 6.28846 10.1466 5.40408 10.747 4.75955C11.3474 4.11502 12.1868 3.76736 13.1243 3.76736C14.0552 3.76736 14.897 4.12127 15.4954 4.76424C16.0997 5.41346 16.3939 6.29627 16.3259 7.24979C16.2607 8.15252 15.9001 8.99861 15.3103 9.6326C14.704 10.2838 13.9279 10.6424 13.1243 10.6424Z"  fill="#fbbfd8"/>
<path d="M18.274 17.5174H7.97513C7.80954 17.5183 7.64597 17.4811 7.49698 17.4089C7.348 17.3366 7.21757 17.2311 7.11575 17.1006C7.00774 16.959 6.93316 16.7949 6.89758 16.6204C6.86199 16.4459 6.86634 16.2657 6.91028 16.0931C7.23919 14.7724 8.05403 13.6771 9.26653 12.926C10.3427 12.2596 11.7126 11.8924 13.1243 11.8924C14.5638 11.8924 15.8978 12.2439 16.9802 12.9099C18.1954 13.6572 19.0115 14.7588 19.3388 16.0955C19.3822 16.2682 19.3861 16.4484 19.3501 16.6228C19.3141 16.7971 19.2392 16.9611 19.131 17.1025C19.0293 17.2325 18.8991 17.3375 18.7506 17.4094C18.602 17.4813 18.439 17.5182 18.274 17.5174Z"  fill="#fbbfd8"/>
<path d="M5.74153 10.7986C4.36692 10.7986 3.15833 9.52049 3.04622 7.94979C2.99075 7.1451 3.24153 6.40096 3.74935 5.85526C4.25169 5.31502 4.96028 5.01736 5.74153 5.01736C6.52278 5.01736 7.22591 5.31658 7.73099 5.85994C8.2427 6.40994 8.4927 7.15252 8.43411 7.95057C8.322 9.52088 7.1138 10.7986 5.74153 10.7986Z"  fill="#fbbfd8"/>
<path d="M8.30638 12.0271C7.61927 11.6912 6.72747 11.5232 5.74192 11.5232C4.59114 11.5232 3.47356 11.8232 2.59466 12.3678C1.59817 12.9861 0.927861 13.8865 0.657158 14.9736C0.617543 15.13 0.613796 15.2933 0.646197 15.4513C0.678599 15.6093 0.746311 15.758 0.844267 15.8861C0.937215 16.0054 1.05629 16.1019 1.19234 16.1679C1.32839 16.234 1.47778 16.2681 1.62903 16.2674H5.96497C6.03815 16.2674 6.10901 16.2417 6.16519 16.1948C6.22137 16.1479 6.25931 16.0827 6.27239 16.0107C6.27669 15.9861 6.28216 15.9615 6.28841 15.9373C6.61966 14.6068 7.39583 13.4826 8.5427 12.6631C8.58489 12.6327 8.61881 12.5922 8.64141 12.5454C8.66401 12.4985 8.67457 12.4468 8.67212 12.3949C8.66968 12.3429 8.65431 12.2924 8.62742 12.2479C8.60052 12.2034 8.56295 12.1663 8.5181 12.14C8.45677 12.1041 8.38645 12.0662 8.30638 12.0271Z"  fill="#fbbfd8"/>
</svg>
