<svg width="20" height="21" viewBox="0 0 20 21" fill="none" xmlns="http://www.w3.org/2000/svg">
<g clip-path="url(#clip0_101_871)">
<path d="M15 20.6424H5C4.33718 20.6416 3.70172 20.378 3.23303 19.9093C2.76435 19.4406 2.50072 18.8052 2.5 18.1424V3.14236C2.50072 2.47955 2.76435 1.84408 3.23303 1.3754C3.70172 0.906713 4.33718 0.643088 5 0.642365H15C15.6628 0.643088 16.2983 0.906713 16.767 1.3754C17.2357 1.84408 17.4993 2.47955 17.5 3.14236V18.1424C17.4993 18.8052 17.2357 19.4406 16.767 19.9093C16.2983 20.378 15.6628 20.6416 15 20.6424ZM5 1.89236C4.66848 1.89236 4.35054 2.02406 4.11612 2.25848C3.8817 2.4929 3.75 2.81084 3.75 3.14236V18.1424C3.75 18.4739 3.8817 18.7918 4.11612 19.0262C4.35054 19.2607 4.66848 19.3924 5 19.3924H15C15.3315 19.3924 15.6495 19.2607 15.8839 19.0262C16.1183 18.7918 16.25 18.4739 16.25 18.1424V3.14236C16.25 2.81084 16.1183 2.4929 15.8839 2.25848C15.6495 2.02406 15.3315 1.89236 15 1.89236H5Z"  fill="#fbbfd8"/>
<path d="M15 0.642365C15.6628 0.643088 16.2983 0.906713 16.767 1.3754C17.2357 1.84408 17.4993 2.47955 17.5 3.14236V18.1424C17.4993 18.8052 17.2357 19.4406 16.767 19.9093C16.2983 20.378 15.6628 20.6416 15 20.6424H5C4.33718 20.6416 3.70172 20.378 3.23303 19.9093C2.76435 19.4406 2.50072 18.8052 2.5 18.1424V3.14236C2.50072 2.47955 2.76435 1.84408 3.23303 1.3754C3.70172 0.906713 4.33718 0.643088 5 0.642365H15ZM5 19.3924H15C15.3315 19.3924 15.6495 19.2607 15.8839 19.0262C16.1183 18.7918 16.25 18.4739 16.25 18.1424V3.14236C16.25 2.81084 16.1183 2.4929 15.8839 2.25848C15.6495 2.02406 15.3315 1.89236 15 1.89236H5C4.66848 1.89236 4.35054 2.02406 4.11612 2.25848C3.8817 2.4929 3.75 2.81084 3.75 3.14236V18.1424C3.75 18.4739 3.8817 18.7918 4.11612 19.0262C4.35054 19.2607 4.66848 19.3924 5 19.3924ZM5 18.7674C4.83424 18.7674 4.67527 18.7015 4.55806 18.5843C4.44085 18.4671 4.375 18.3081 4.375 18.1424V3.14236C4.375 2.9766 4.44085 2.81763 4.55806 2.70042C4.67527 2.58321 4.83424 2.51736 5 2.51736H15C15.1658 2.51736 15.3247 2.58321 15.4419 2.70042C15.5592 2.81763 15.625 2.9766 15.625 3.14236V18.1424C15.625 18.3081 15.5592 18.4671 15.4419 18.5843C15.3247 18.7015 15.1658 18.7674 15 18.7674H5Z" fill="#fbbfd8" />
</g>
<defs>
<clipPath id="clip0_101_871">
<rect width="20" height="20"   transform="translate(0 0.642365)"/>
</clipPath>
</defs>
</svg>
