<svg width="46" height="15" viewBox="0 0 46 15" fill="none" xmlns="http://www.w3.org/2000/svg">
<circle cx="4" cy="7.5" r="4" fill="#00B37E"/>
<path d="M19.5586 6.96484V7.50391C19.5586 8.14453 19.4785 8.71875 19.3184 9.22656C19.1582 9.73438 18.9277 10.166 18.627 10.5215C18.3262 10.877 17.9648 11.1484 17.543 11.3359C17.125 11.5234 16.6562 11.6172 16.1367 11.6172C15.6328 11.6172 15.1699 11.5234 14.748 11.3359C14.3301 11.1484 13.9668 10.877 13.6582 10.5215C13.3535 10.166 13.1172 9.73438 12.9492 9.22656C12.7812 8.71875 12.6973 8.14453 12.6973 7.50391V6.96484C12.6973 6.32422 12.7793 5.75195 12.9434 5.24805C13.1113 4.74023 13.3477 4.30859 13.6523 3.95312C13.957 3.59375 14.3184 3.32031 14.7363 3.13281C15.1582 2.94531 15.6211 2.85156 16.125 2.85156C16.6445 2.85156 17.1133 2.94531 17.5312 3.13281C17.9531 3.32031 18.3145 3.59375 18.6152 3.95312C18.9199 4.30859 19.1523 4.74023 19.3125 5.24805C19.4766 5.75195 19.5586 6.32422 19.5586 6.96484ZM18.4395 7.50391V6.95312C18.4395 6.44531 18.3867 5.99609 18.2812 5.60547C18.1797 5.21484 18.0293 4.88672 17.8301 4.62109C17.6309 4.35547 17.3867 4.1543 17.0977 4.01758C16.8125 3.88086 16.4883 3.8125 16.125 3.8125C15.7734 3.8125 15.4551 3.88086 15.1699 4.01758C14.8887 4.1543 14.6465 4.35547 14.4434 4.62109C14.2441 4.88672 14.0898 5.21484 13.9805 5.60547C13.8711 5.99609 13.8164 6.44531 13.8164 6.95312V7.50391C13.8164 8.01562 13.8711 8.46875 13.9805 8.86328C14.0898 9.25391 14.2461 9.58398 14.4492 9.85352C14.6562 10.1191 14.9004 10.3203 15.1816 10.457C15.4668 10.5938 15.7852 10.6621 16.1367 10.6621C16.5039 10.6621 16.8301 10.5938 17.1152 10.457C17.4004 10.3203 17.6406 10.1191 17.8359 9.85352C18.0352 9.58398 18.1855 9.25391 18.2871 8.86328C18.3887 8.46875 18.4395 8.01562 18.4395 7.50391ZM22.1719 6.51367V11.5H21.0879V5.16016H22.1133L22.1719 6.51367ZM21.9141 8.08984L21.4629 8.07227C21.4668 7.63867 21.5312 7.23828 21.6562 6.87109C21.7812 6.5 21.957 6.17773 22.1836 5.9043C22.4102 5.63086 22.6797 5.41992 22.9922 5.27148C23.3086 5.11914 23.6582 5.04297 24.041 5.04297C24.3535 5.04297 24.6348 5.08594 24.8848 5.17188C25.1348 5.25391 25.3477 5.38672 25.5234 5.57031C25.7031 5.75391 25.8398 5.99219 25.9336 6.28516C26.0273 6.57422 26.0742 6.92773 26.0742 7.3457V11.5H24.9844V7.33398C24.9844 7.00195 24.9355 6.73633 24.8379 6.53711C24.7402 6.33398 24.5977 6.1875 24.4102 6.09766C24.2227 6.00391 23.9922 5.95703 23.7188 5.95703C23.4492 5.95703 23.2031 6.01367 22.9805 6.12695C22.7617 6.24023 22.5723 6.39648 22.4121 6.5957C22.2559 6.79492 22.1328 7.02344 22.043 7.28125C21.957 7.53516 21.9141 7.80469 21.9141 8.08984ZM28.8984 2.5V11.5H27.8086V2.5H28.8984ZM31.8164 5.16016V11.5H30.7266V5.16016H31.8164ZM30.6445 3.47852C30.6445 3.30273 30.6973 3.1543 30.8027 3.0332C30.9121 2.91211 31.0723 2.85156 31.2832 2.85156C31.4902 2.85156 31.6484 2.91211 31.7578 3.0332C31.8711 3.1543 31.9277 3.30273 31.9277 3.47852C31.9277 3.64648 31.8711 3.79102 31.7578 3.91211C31.6484 4.0293 31.4902 4.08789 31.2832 4.08789C31.0723 4.08789 30.9121 4.0293 30.8027 3.91211C30.6973 3.79102 30.6445 3.64648 30.6445 3.47852ZM34.6406 6.51367V11.5H33.5566V5.16016H34.582L34.6406 6.51367ZM34.3828 8.08984L33.9316 8.07227C33.9355 7.63867 34 7.23828 34.125 6.87109C34.25 6.5 34.4258 6.17773 34.6523 5.9043C34.8789 5.63086 35.1484 5.41992 35.4609 5.27148C35.7773 5.11914 36.127 5.04297 36.5098 5.04297C36.8223 5.04297 37.1035 5.08594 37.3535 5.17188C37.6035 5.25391 37.8164 5.38672 37.9922 5.57031C38.1719 5.75391 38.3086 5.99219 38.4023 6.28516C38.4961 6.57422 38.543 6.92773 38.543 7.3457V11.5H37.4531V7.33398C37.4531 7.00195 37.4043 6.73633 37.3066 6.53711C37.209 6.33398 37.0664 6.1875 36.8789 6.09766C36.6914 6.00391 36.4609 5.95703 36.1875 5.95703C35.918 5.95703 35.6719 6.01367 35.4492 6.12695C35.2305 6.24023 35.041 6.39648 34.8809 6.5957C34.7246 6.79492 34.6016 7.02344 34.5117 7.28125C34.4258 7.53516 34.3828 7.80469 34.3828 8.08984ZM42.8203 11.6172C42.3789 11.6172 41.9785 11.543 41.6191 11.3945C41.2637 11.2422 40.957 11.0293 40.6992 10.7559C40.4453 10.4824 40.25 10.1582 40.1133 9.7832C39.9766 9.4082 39.9082 8.99805 39.9082 8.55273V8.30664C39.9082 7.79102 39.9844 7.33203 40.1367 6.92969C40.2891 6.52344 40.4961 6.17969 40.7578 5.89844C41.0195 5.61719 41.3164 5.4043 41.6484 5.25977C41.9805 5.11523 42.3242 5.04297 42.6797 5.04297C43.1328 5.04297 43.5234 5.12109 43.8516 5.27734C44.1836 5.43359 44.4551 5.65234 44.666 5.93359C44.877 6.21094 45.0332 6.53906 45.1348 6.91797C45.2363 7.29297 45.2871 7.70312 45.2871 8.14844V8.63477H40.5527V7.75H44.2031V7.66797C44.1875 7.38672 44.1289 7.11328 44.0273 6.84766C43.9297 6.58203 43.7734 6.36328 43.5586 6.19141C43.3438 6.01953 43.0508 5.93359 42.6797 5.93359C42.4336 5.93359 42.207 5.98633 42 6.0918C41.793 6.19336 41.6152 6.3457 41.4668 6.54883C41.3184 6.75195 41.2031 7 41.1211 7.29297C41.0391 7.58594 40.998 7.92383 40.998 8.30664V8.55273C40.998 8.85352 41.0391 9.13672 41.1211 9.40234C41.207 9.66406 41.3301 9.89453 41.4902 10.0938C41.6543 10.293 41.8516 10.4492 42.082 10.5625C42.3164 10.6758 42.582 10.7324 42.8789 10.7324C43.2617 10.7324 43.5859 10.6543 43.8516 10.498C44.1172 10.3418 44.3496 10.1328 44.5488 9.87109L45.2051 10.3926C45.0684 10.5996 44.8945 10.7969 44.6836 10.9844C44.4727 11.1719 44.2129 11.3242 43.9043 11.4414C43.5996 11.5586 43.2383 11.6172 42.8203 11.6172Z" fill="#00B37E"/>
</svg>
