<svg width="24" height="24" viewBox="0 0 24 24" fill="none" xmlns="http://www.w3.org/2000/svg">
<g opacity="0.8">
<path d="M12 2.25C10.0716 2.25 8.18657 2.82183 6.58319 3.89317C4.97982 4.96451 3.73013 6.48726 2.99218 8.26884C2.25422 10.0504 2.06114 12.0108 2.43735 13.9021C2.81355 15.7934 3.74215 17.5307 5.10571 18.8943C6.46928 20.2579 8.20656 21.1865 10.0979 21.5627C11.9892 21.9389 13.9496 21.7458 15.7312 21.0078C17.5127 20.2699 19.0355 19.0202 20.1068 17.4168C21.1782 15.8134 21.75 13.9284 21.75 12C21.7473 9.41498 20.7192 6.93661 18.8913 5.10872C17.0634 3.28084 14.585 2.25273 12 2.25ZM12 20.25C10.3683 20.25 8.77326 19.7661 7.41655 18.8596C6.05984 17.9531 5.00242 16.6646 4.378 15.1571C3.75358 13.6496 3.5902 11.9908 3.90853 10.3905C4.22685 8.79016 5.01259 7.32015 6.16637 6.16637C7.32016 5.01259 8.79017 4.22685 10.3905 3.90852C11.9909 3.59019 13.6497 3.75357 15.1571 4.37799C16.6646 5.00242 17.9531 6.05984 18.8596 7.41655C19.7661 8.77325 20.25 10.3683 20.25 12C20.2475 14.1873 19.3775 16.2843 17.8309 17.8309C16.2843 19.3775 14.1873 20.2475 12 20.25ZM9.10032 9.39937C9.52416 10.2007 9.74573 11.0935 9.74573 12C9.74573 12.9065 9.52416 13.7993 9.10032 14.6006C9.05549 14.6898 8.99332 14.7691 8.91744 14.8339C8.84157 14.8988 8.75352 14.9478 8.65845 14.9782C8.56338 15.0085 8.46321 15.0196 8.3638 15.0108C8.26439 15.002 8.16775 14.9734 8.07953 14.9267C7.99132 14.88 7.9133 14.8162 7.85006 14.739C7.78681 14.6618 7.73961 14.5728 7.71122 14.4771C7.68283 14.3814 7.67382 14.281 7.68472 14.1818C7.69562 14.0826 7.72621 13.9866 7.77469 13.8994C8.08856 13.3155 8.25284 12.6629 8.25284 12C8.25284 11.3371 8.08856 10.6845 7.77469 10.1006C7.68655 9.92531 7.67063 9.72244 7.73034 9.53553C7.79005 9.34861 7.92063 9.19254 8.09407 9.10079C8.26752 9.00903 8.47002 8.98891 8.65813 9.04473C8.84624 9.10055 9.00499 9.22787 9.10032 9.39937ZM14.3503 6.39937C15.2728 8.12305 15.7555 10.0478 15.7555 12.0028C15.7555 13.9578 15.2728 15.8826 14.3503 17.6063C14.2505 17.7702 14.0915 17.8896 13.9063 17.9399C13.721 17.9902 13.5235 17.9676 13.3544 17.8766C13.1854 17.7856 13.0576 17.6333 12.9975 17.451C12.9374 17.2687 12.9495 17.0702 13.0313 16.8966C13.8379 15.3905 14.26 13.7085 14.26 12C14.26 10.2915 13.8379 8.60949 13.0313 7.10344C12.9375 6.9279 12.9174 6.72231 12.9752 6.5319C13.033 6.34149 13.1642 6.18186 13.3397 6.08813C13.5152 5.99439 13.7208 5.97422 13.9112 6.03207C14.1016 6.08991 14.2613 6.22102 14.355 6.39656L14.3503 6.39937ZM11.7253 7.89937C12.3986 9.162 12.7508 10.5709 12.7508 12.0019C12.7508 13.4328 12.3986 14.8417 11.7253 16.1044C11.68 16.1931 11.6175 16.2718 11.5415 16.3361C11.4654 16.4004 11.3773 16.4488 11.2823 16.4787C11.1873 16.5086 11.0874 16.5192 10.9882 16.51C10.8891 16.5008 10.7927 16.472 10.7048 16.4252C10.617 16.3784 10.5393 16.3145 10.4763 16.2374C10.4134 16.1603 10.3664 16.0713 10.3382 15.9759C10.3099 15.8804 10.301 15.7802 10.3119 15.6812C10.3228 15.5823 10.3533 15.4864 10.4016 15.3994C10.9593 14.3538 11.2511 13.1869 11.2511 12.0019C11.2511 10.8168 10.9593 9.64998 10.4016 8.60437C10.3533 8.5173 10.3228 8.42149 10.3119 8.32251C10.301 8.22353 10.3099 8.12338 10.3382 8.02789C10.3664 7.9324 10.4134 7.84349 10.4763 7.76635C10.5393 7.6892 10.617 7.62536 10.7048 7.57856C10.7927 7.53175 10.8891 7.50291 10.9882 7.49373C11.0874 7.48454 11.1873 7.49519 11.2823 7.52505C11.3773 7.55492 11.4654 7.6034 11.5415 7.66766C11.6175 7.73193 11.68 7.8107 11.7253 7.89937Z" fill="#F9FAFB"/>
</g>
</svg>
