<svg width="32" height="32" viewBox="0 0 32 32" fill="none" xmlns="http://www.w3.org/2000/svg">
<path d="M0.997759 20.7947C0.85574 20.5648 0.662695 20.1968 0.546627 19.9262C-0.139598 18.333 -0.172448 16.6843 0.407126 15.1016C1.0443 13.3658 2.26148 12.0369 3.8342 11.3603C5.81141 10.5094 7.9982 10.6772 9.89318 11.8016C11.097 12.4922 11.9504 13.5585 12.5984 15.0661L12.6586 15.2127L12.7707 15.504C12.7888 15.5509 12.8065 15.5966 12.8242 15.6404L0.997759 20.7947ZM4.94681 13.9179C3.54272 14.5213 2.81893 15.8385 2.96763 17.3829L8.91558 14.823C7.89276 13.6208 6.56148 13.2225 4.94681 13.9179ZM11.9562 21.0248L9.65721 19.4876L9.65393 19.491L9.53074 19.408C9.17597 19.984 8.62202 20.4504 7.92331 20.7534C6.59378 21.3316 5.3617 21.183 4.47696 20.407L4.3956 20.5307C4.39472 20.5293 4.39451 20.5282 4.39297 20.5282L2.88409 22.7857C3.25944 23.0465 3.66144 23.2668 4.08331 23.4427C5.7502 24.1351 7.45564 24.103 9.13578 23.3723C10.3511 22.8456 11.3046 22.0426 11.9562 21.0247V21.0248ZM16.9579 8.03564V20.5863L18.9092 21.3771L17.8004 23.9642L15.6465 23.0673C15.163 22.8581 14.8341 22.5376 14.5848 22.176C14.3467 21.8075 14.1685 21.3016 14.1685 20.6205V8.03564H16.9579ZM22.0129 17.389C22.014 16.3203 22.4859 15.3618 23.2327 14.7104L21.2307 12.4782C19.873 13.6783 19.0178 15.432 19.0162 17.3859C19.0141 19.3405 19.8679 21.0959 21.2243 22.2992L23.2239 20.0648C22.4808 19.4109 22.012 18.4553 22.0129 17.389ZM25.5698 20.9513C25.1756 20.9502 24.796 20.885 24.442 20.7672L23.486 23.6098C24.1567 23.8346 24.8593 23.9495 25.5667 23.9499C28.7365 23.953 31.3833 21.7039 31.9966 18.714L29.058 18.114C28.7238 19.7345 27.2888 20.9524 25.5698 20.9513ZM25.5786 10.8349C24.8721 10.8335 24.1701 10.9465 23.4998 11.1695L24.4475 14.0147C24.8114 13.8942 25.1923 13.8328 25.5757 13.8327C27.2988 13.8343 28.7348 15.0594 29.0611 16.6846L32 16.0885C31.3951 13.0942 28.751 10.8368 25.5786 10.8349Z" fill="#F9FAFB"/>
</svg>
