<svg width="32" height="32" viewBox="0 0 32 32" fill="none" xmlns="http://www.w3.org/2000/svg">
<path d="M15.125 24.041L15.364 24.234C13.7438 25.3149 11.8387 25.8896 9.891 25.885C4.427 25.885 0 21.464 0 16C0 10.541 4.427 6.11504 9.885 6.11504C11.912 6.11504 13.797 6.71904 15.36 7.76004C15.283 7.824 15.2096 7.8921 15.14 7.96404C12.803 9.98404 11.459 12.917 11.459 16C11.459 19.083 12.798 22.016 15.126 24.041H15.125ZM22.115 6.11504C20.1674 6.10905 18.2618 6.68158 16.64 7.76004C16.719 7.82804 16.797 7.89604 16.86 7.96404C18.0144 8.96083 18.9406 10.1945 19.5758 11.5811C20.211 12.9677 20.5402 14.4749 20.541 16C20.541 19.079 19.202 22.011 16.874 24.041C16.7948 24.1059 16.7151 24.1702 16.635 24.234C18.2549 25.3156 20.1602 25.8904 22.108 25.885C27.572 25.885 31.999 21.464 31.999 16C31.999 10.541 27.573 6.11504 22.115 6.11504ZM16 8.23504C14.8224 9.158 13.8704 10.3369 13.2162 11.6825C12.562 13.028 12.2227 14.5049 12.224 16.001C12.2221 17.498 12.5611 18.9758 13.2153 20.3222C13.8696 21.6687 14.8219 22.8485 16 23.772C16.131 23.673 16.251 23.569 16.375 23.46C17.4439 22.5336 18.301 21.388 18.8878 20.1009C19.4746 18.8139 19.7776 17.4156 19.776 16.001C19.7772 14.5049 19.4378 13.0281 18.7836 11.6826C18.1294 10.3371 17.1775 9.1581 16 8.23504Z" fill="#F9FAFB"/>
</svg>
