<svg width="20" height="20" viewBox="0 0 20 20" fill="none" xmlns="http://www.w3.org/2000/svg">
<path d="M16.25 3.125H3.75C3.41848 3.125 3.10054 3.2567 2.86612 3.49112C2.6317 3.72554 2.5 4.04348 2.5 4.375V8.96641C2.5 15.9672 8.42344 18.2898 9.60938 18.6844C9.86267 18.7705 10.1373 18.7705 10.3906 18.6844C11.5781 18.2898 17.5 15.9672 17.5 8.96641V4.375C17.5 4.04348 17.3683 3.72554 17.1339 3.49112C16.8995 3.2567 16.5815 3.125 16.25 3.125ZM13.5672 8.56719L9.19219 12.9422C9.13414 13.0003 9.06521 13.0464 8.98934 13.0778C8.91346 13.1093 8.83213 13.1255 8.75 13.1255C8.66787 13.1255 8.58654 13.1093 8.51066 13.0778C8.43479 13.0464 8.36586 13.0003 8.30781 12.9422L6.43281 11.0672C6.31554 10.9499 6.24965 10.7909 6.24965 10.625C6.24965 10.4591 6.31554 10.3001 6.43281 10.1828C6.55009 10.0655 6.70915 9.99965 6.875 9.99965C7.04085 9.99965 7.19991 10.0655 7.31719 10.1828L8.75 11.6156L12.6828 7.68281C12.7409 7.62474 12.8098 7.57868 12.8857 7.54725C12.9616 7.51583 13.0429 7.49965 13.125 7.49965C13.2071 7.49965 13.2884 7.51583 13.3643 7.54725C13.4402 7.57868 13.5091 7.62474 13.5672 7.68281C13.6253 7.74088 13.6713 7.80982 13.7027 7.88569C13.7342 7.96156 13.7503 8.04288 13.7503 8.125C13.7503 8.20712 13.7342 8.28844 13.7027 8.36431C13.6713 8.44018 13.6253 8.50912 13.5672 8.56719Z" fill="#6EE7B7"/>
</svg>
