<svg width="236" height="132" viewBox="0 0 236 132" fill="none" xmlns="http://www.w3.org/2000/svg">
<g clip-path="url(#clip0_328_81)">
<path d="M16 122C16 108.08 18.7418 94.296 24.0688 81.4355C29.3958 68.575 37.2037 56.8896 47.0467 47.0466C56.8897 37.2036 68.5751 29.3957 81.4356 24.0687C94.2961 18.7418 108.08 16 122 16C135.92 16 149.704 18.7418 162.565 24.0688C175.425 29.3958 187.11 37.2037 196.953 47.0467C206.796 56.8897 214.604 68.5751 219.931 81.4356C225.258 94.2961 228 108.08 228 122" stroke="#F6C833" stroke-width="2" stroke-dasharray="2 13"/>
<line opacity="0.4" x1="14" y1="121.5" x2="230" y2="121.5" stroke="#F6C833"/>
<line x1="228" y1="126" x2="228" y2="118" stroke="#E5BB46" stroke-width="2"/>
<line x1="16" y1="126" x2="16" y2="118" stroke="#E5BB46" stroke-width="2"/>
</g>
<defs>
<clipPath id="clip0_328_81">
<rect width="236" height="132" fill="white"/>
</clipPath>
</defs>
</svg>
