<svg width="133" height="80" viewBox="0 0 133 80" fill="none" xmlns="http://www.w3.org/2000/svg">
<path d="M117.246 49.1804C117.18 49.1804 117.12 49.1961 117.054 49.1961C118.261 46.4035 118.937 43.3294 118.937 40.0987C118.937 27.4188 108.659 17.148 95.9818 17.148C91.5012 17.148 87.3342 18.4465 83.8008 20.6681C79.0214 9.05194 67.604 0.862038 54.2638 0.862038C36.6245 0.862038 22.3245 15.169 22.3245 32.8083C22.3245 34.1381 22.4324 35.4445 22.5912 36.7351C22.5013 36.7351 22.4145 36.7195 22.3245 36.7195C10.498 36.7195 0.910126 46.3097 0.910126 58.1362C0.910126 69.9628 10.498 79.5506 22.3245 79.5506H117.246C125.634 79.5506 132.434 72.7515 132.434 64.3636C132.434 55.9765 125.634 49.1804 117.246 49.1804Z" fill="white"/>
</svg>
