<svg width="47" height="49" viewBox="0 0 47 49" fill="none" xmlns="http://www.w3.org/2000/svg">
<path d="M43.1596 0.29126H4.75619C3.73767 0.29126 2.76086 0.695866 2.04066 1.41607C1.32045 2.13628 0.915848 3.11308 0.915848 4.13161V18.2377C0.915848 39.7484 19.1143 46.8819 22.7578 48.0916C23.5357 48.3578 24.3801 48.3578 25.158 48.0916C28.8064 46.8795 47 39.746 47 18.2353V4.13161C47 3.11308 46.5954 2.13628 45.8752 1.41607C45.155 0.695866 44.1782 0.29126 43.1596 0.29126ZM31.6386 23.3333H25.8781V29.0939C25.8781 29.6031 25.6758 30.0915 25.3157 30.4516C24.9556 30.8117 24.4672 31.014 23.9579 31.014C23.4487 31.014 22.9603 30.8117 22.6002 30.4516C22.2401 30.0915 22.0377 29.6031 22.0377 29.0939V23.3333H16.2772C15.768 23.3333 15.2796 23.131 14.9195 22.7709C14.5594 22.4108 14.3571 21.9224 14.3571 21.4132C14.3571 20.9039 14.5594 20.4155 14.9195 20.0554C15.2796 19.6953 15.768 19.493 16.2772 19.493H22.0377V13.7325C22.0377 13.2232 22.2401 12.7348 22.6002 12.3747C22.9603 12.0146 23.4487 11.8123 23.9579 11.8123C24.4672 11.8123 24.9556 12.0146 25.3157 12.3747C25.6758 12.7348 25.8781 13.2232 25.8781 13.7325V19.493H31.6386C32.1479 19.493 32.6363 19.6953 32.9964 20.0554C33.3565 20.4155 33.5588 20.9039 33.5588 21.4132C33.5588 21.9224 33.3565 22.4108 32.9964 22.7709C32.6363 23.131 32.1479 23.3333 31.6386 23.3333Z" fill="#372D3B"/>
</svg>
