<svg width="17" height="17" viewBox="0 0 17 17" fill="none" xmlns="http://www.w3.org/2000/svg">
<path d="M16.049 7.98828L12.8928 10.847L13.8383 15.1031C13.8883 15.3256 13.874 15.5585 13.7972 15.7726C13.7204 15.9867 13.5845 16.1726 13.4065 16.307C13.2285 16.4414 13.0162 16.5183 12.7963 16.5282C12.5764 16.5381 12.3585 16.4804 12.1699 16.3625L8.59324 14.111L5.02423 16.3625C4.83568 16.4804 4.61782 16.5381 4.39789 16.5282C4.17795 16.5183 3.9657 16.4414 3.78767 16.307C3.60964 16.1726 3.47373 15.9867 3.39694 15.7726C3.32014 15.5585 3.30586 15.3256 3.35589 15.1031L4.29993 10.8513L1.14311 7.98828C0.97614 7.83882 0.855405 7.64153 0.796043 7.42114C0.736681 7.20076 0.741335 6.96709 0.80942 6.74944C0.877506 6.53178 1.00599 6.33984 1.17877 6.19767C1.35154 6.05551 1.56092 5.96945 1.78063 5.95028L5.94168 5.57624L7.56593 1.55545C7.65075 1.34447 7.79382 1.16425 7.97712 1.03749C8.16043 0.910733 8.37577 0.843094 8.59604 0.843094C8.81631 0.843094 9.03165 0.910733 9.21496 1.03749C9.39826 1.16425 9.54133 1.34447 9.62615 1.55545L11.2553 5.57624L15.4149 5.95028C15.6347 5.96945 15.844 6.05551 16.0168 6.19767C16.1896 6.33984 16.3181 6.53178 16.3862 6.74944C16.4542 6.96709 16.4589 7.20076 16.3995 7.42114C16.3402 7.64153 16.2194 7.83882 16.0525 7.98828H16.049Z" fill="#FBF8FC"/>
</svg>
