<svg width="24" height="24" viewBox="0 0 24 24" fill="none" xmlns="http://www.w3.org/2000/svg">
<path d="M1.65984 10.6429L1.66734 10.6396L21.6867 2.33618C21.8551 2.26571 22.0383 2.23807 22.22 2.25574C22.4017 2.2734 22.5762 2.33583 22.7278 2.43743C22.888 2.54242 23.0196 2.68559 23.1108 2.85407C23.2019 3.02254 23.2498 3.21104 23.25 3.40259V8.71306C23.2499 8.97493 23.1585 9.22856 22.9914 9.43024C22.8244 9.63192 22.5923 9.76902 22.335 9.8179L11.4164 11.8368C11.3735 11.8449 11.3348 11.8678 11.3069 11.9014C11.2791 11.9351 11.2638 11.9774 11.2638 12.021C11.2638 12.0647 11.2791 12.107 11.3069 12.1406C11.3348 12.1743 11.3735 12.1971 11.4164 12.2052L22.3345 14.2242C22.5917 14.2729 22.8239 14.4098 22.991 14.6113C23.1581 14.8128 23.2497 15.0663 23.25 15.3281V20.6395C23.2501 20.8224 23.2048 21.0025 23.1182 21.1636C23.0316 21.3246 22.9063 21.4617 22.7536 21.5624C22.5699 21.6845 22.3544 21.7497 22.1339 21.7499C21.9806 21.7498 21.8289 21.719 21.6877 21.6595L1.66875 13.4034L1.65984 13.3992C1.39037 13.2833 1.16076 13.0911 0.999427 12.8461C0.838089 12.6012 0.752101 12.3143 0.752101 12.021C0.752101 11.7277 0.838089 11.4409 0.999427 11.1959C1.16076 10.951 1.39037 10.7587 1.65984 10.6429V10.6429Z" fill="#E1E1E6"/>
</svg>
